<?xml version="1.0" encoding="UTF-8" standalone="no"?>
<!DOCTYPE svg PUBLIC "-//W3C//DTD SVG 1.1//EN" "http://www.w3.org/Graphics/SVG/1.1/DTD/svg11.dtd">
<svg width="100%" height="100%" viewBox="0 0 16 16" version="1.1" xmlns="http://www.w3.org/2000/svg" xmlns:xlink="http://www.w3.org/1999/xlink" xml:space="preserve" xmlns:serif="http://www.serif.com/" style="fill-rule:evenodd;clip-rule:evenodd;stroke-linejoin:round;stroke-miterlimit:2;">
    <path d="M7,2C7,1.448 6.552,1 6,1L2,1C1.448,1 1,1.448 1,2L1,6C1,6.552 1.448,7 2,7L6,7C6.552,7 7,6.552 7,6L7,2Z"/>
    <g transform="matrix(1,0,0,1,8,0)">
        <path d="M7,2C7,1.448 6.552,1 6,1L2,1C1.448,1 1,1.448 1,2L1,6C1,6.552 1.448,7 2,7L6,7C6.552,7 7,6.552 7,6L7,2Z"/>
    </g>
    <path d="M7,10C7,9.448 6.552,9 6,9L2,9C1.448,9 1,9.448 1,10L1,14C1,14.552 1.448,15 2,15L6,15C6.552,15 7,14.552 7,14L7,10Z"/>
    <path d="M15,10C15,9.448 14.552,9 14,9L10,9C9.448,9 9,9.448 9,10L9,14C9,14.552 9.448,15 10,15L14,15C14.552,15 15,14.552 15,14L15,10Z"/>
</svg>
